<svg xmlns="http://www.w3.org/2000/svg" width="253" height="100" viewBox="0 0 159.82 63.22" shape-rendering="geometricPrecision" text-rendering="geometricPrecision" image-rendering="optimizeQuality" fill-rule="evenodd" clip-rule="evenodd"><defs><style>.fil1,.fil6{fill-rule:nonzero}.fil6{fill:#e2a528}.fil1{fill:#fff}</style></defs><g id="Слой_x0020_1"><g id="_2348843490576"><path d="M0 0v63.22h159.82V0z" fill="#606769"/><path class="fil1" d="M153.07 56.23v-41h1.53v-1.91h-4.99v1.91h1.54v41h-27.17v-41h1.54v-1.91h-4.99v1.91h1.54v41H94.9v-41h1.54v-1.91h-4.99v1.91h1.53v41H65.82v-41h1.54v-1.91h-4.99v1.91h1.53v41H36.72v-41h1.55v-1.91h-4.98v1.91h1.52v41H7.69V15.36h1.54v-1.92H4.25v1.92h1.53v40.87H0v1.92h159.6v-1.92c-22.19 0-.15.03-6.53 0z"/><path class="fil1" d="M135.77 54.04h-4.09a.826.826 0 010-1.65h3.27V48.1c0-.45.36-.82.82-.82.46 0 .82.37.82.82v5.12c0 .45-.36.82-.82.82z"/><path class="fil1" d="M135.77 49.95h-4.09c-.45 0-.82-.37-.82-.82v-4.09c0-.46.37-.83.82-.83h4.09c.46 0 .82.37.82.83v4.09c0 .45-.36.82-.82.82zm-3.27-1.65h2.45v-2.44h-2.45v2.44zm5.53.83v-4.09c0-.46.37-.83.83-.83h4.09c.45 0 .82.37.82.83v8.18c0 .45-.37.82-.82.82h-4.12c-.43 0-.8-.38-.8-.82v-4.09zm4.09 3.26v-2.44h-2.44v2.44h2.44zm0-4.09v-2.44h-2.44v2.44h2.44zm-39.34 6.02h4.09a.826.826 0 000-1.65h-3.27v-4.41h-.01v-3.5c0-.46-.36-.82-.82-.82-.45 0-.81.36-.81.82v8.74c0 .46.36.82.81.82h.01zm6.59-5.19v-4.09c0-.46.36-.82.82-.82h4.09c.45 0 .82.36.82.82v8.18c0 .45-.37.82-.82.82h-4.11c-.44 0-.8-.37-.8-.82v-4.09zm4.08 3.27v-2.45h-2.44v2.45h2.44zm0-4.09v-2.45h-2.44v2.45h2.44zm-32.83.81v-4.09c0-.45.37-.82.82-.82h4.09c.46 0 .83.37.83.82v8.18c-.01.46-.37.83-.83.83h-4.11c-.43 0-.8-.38-.8-.83v-4.09zm4.09 3.27v-2.44h-2.44v2.44h2.44zm0-4.09v-2.44h-2.44v2.44h2.44zm-11.27.82v-4.09c0-.45.37-.82.83-.82h4.09c.45 0 .82.37.82.82v8.18c0 .46-.37.83-.82.83h-4.12c-.43 0-.8-.38-.8-.83v-4.09zm4.09 3.27v-2.44h-2.44v2.44h2.44zm0-4.09v-2.44h-2.44v2.44h2.44z"/><path class="fil1" d="M51.39 49.12v-4.09c0-.45.37-.82.82-.82h4.09c.46 0 .83.37.83.82v8.18c-.01.46-.37.83-.83.83h-4.11c-.43 0-.8-.38-.8-.83v-4.09zm4.09 3.27v-2.44h-2.44v2.44h2.44zm0-4.09v-2.44h-2.44v2.44h2.44zm-10.44-4.09h4.09a.826.826 0 010 1.65h-3.27v4.29a.826.826 0 01-1.65 0v-5.12c0-.45.37-.82.83-.82z"/><path class="fil1" d="M45.04 48.3h4.09c.45 0 .82.37.82.82v4.09c0 .46-.37.83-.82.83h-4.09c-.46 0-.83-.37-.83-.83v-4.09c0-.45.37-.82.83-.82zm3.26 1.65h-2.44v2.44h2.44v-2.44z"/><path class="fil1" d="M23.19 44.21h4.08a.826.826 0 110 1.65h-3.26v4.29a.826.826 0 01-1.65 0v-5.12c0-.45.37-.82.83-.82z"/><path class="fil1" d="M23.19 48.3h4.08c.46 0 .83.37.83.82v4.09c0 .46-.37.83-.83.83h-4.08c-.46 0-.83-.37-.83-.83v-4.09c0-.45.37-.82.83-.82zm3.26 1.65h-2.44v2.44h2.44v-2.44zm-11.47 3.31v-8.28c0-.42.34-.77.77-.77h4.14c.43 0 .77.35.77.77v8.28c0 .43-.34.78-.77.78h-4.14c-.43 0-.77-.35-.77-.78zm4.14-7.5h-2.59v6.73h2.59v-6.73z"/><path d="M97.77 40.37v.42c0 .27.45.57.45.57l.91.49v.64l-.3 1.7v5.94l.61 1.99s.12 3.11 8.04 3.11c7.92 0 8.04-3.11 8.04-3.11l.61-1.99v-5.94l-.3-1.7v-.64l.91-.49s.45-.3.45-.57v-.42l-1.36.28V28.9l.3-2.41v-5.81l-.45-2.69s.26-2.83-8.2-2.83c-8.46 0-8.2 2.83-8.2 2.83l-.45 2.69v5.81l.3 2.41v11.75l-1.36-.28z" fill="#4b5052" fill-rule="nonzero"/><path d="M100.95 42.06v5.95l.61 1.98s.12 3.12 8.04 3.12c7.93 0 8.05-3.12 8.05-3.12l.61-1.98v-5.95l-.31-1.7V26.77l.31-2.41v-5.8l-.46-2.69s.27-2.83-8.2-2.83c-8.46 0-8.19 2.83-8.19 2.83l-.46 2.69v5.8l.31 2.41v13.59l-.31 1.7z" fill="#f0c134"/><path d="M105.38 52.71c1.07.24 2.45.4 4.22.4 1.78 0 3.16-.16 4.23-.4l2.76-11.35h-13.97l2.76 11.35zm9.69-30.61h-10.93v14.16h10.93V22.1z" fill="#f6c83d" fill-rule="nonzero"/><path d="M101.54 49.99s.12 3.12 8.04 3.12c7.92 0 8.05-3.12 8.05-3.12l.6-1.98v-.42l-.89 1.92s-.11 3.03-7.76 3.03c-7.64 0-7.76-3.03-7.76-3.03l-.89-1.92v.42l.61 1.98zm8.04-36.39c8.17 0 7.91 2.75 7.91 2.75l.74 2.63v-.42l-.45-2.69s.26-2.83-8.2-2.83c-8.46 0-8.2 2.83-8.2 2.83l-.45 2.69v.42l.74-2.63s-.25-2.75 7.91-2.75z" fill="#f6c83d"/><path class="fil6" d="M102.62 41.64h13.97l.6-1.7V29.6l-.3-7.64s-.59-3.54-1.06-3.54h-12.45c-.46 0-1.06 3.54-1.06 3.54l-.3 7.64v10.34l.6 1.7zm1.52-18.55l.91-.85h9.11l.91.85s-.15 2.12-.15 6.23.3 5.95.3 5.95l-1.06.99h-9.11l-1.06-.99s.3-1.84.3-5.95-.15-6.23-.15-6.23z"/><path d="M115.22 35.13s-.88.7-5.62.7c-4.73 0-5.61-.7-5.61-.7l-1.22 5.94s-1.15 2.41 6.83 2.41c7.99 0 6.83-2.41 6.83-2.41l-1.21-5.94zm-11.08-12.04s1.46-.42 5.46-.42c4.01 0 5.47.42 5.47.42l.76-4.39s.79-1.7-6.23-1.7c-7.01 0-6.22 1.7-6.22 1.7l.76 4.39zm11.38 8.78c0 3.25 1.67 8.35 1.67 8.35v-9.2l-1.67-.71v1.56zm-11.84 0v-1.56l-1.66.71v9.2s1.66-5.1 1.66-8.35zm11.84-2.55l1.67.42-.3-7.64s0-.28-.3-.28c-.15 0-.31.42-.31.42s-.76 1.79-.76 5.38v1.7zm-11.84-1.7c0-3.59-.75-5.38-.75-5.38s-.17-.42-.31-.42c-.3 0-.3.28-.3.28l-.3 7.64 1.66-.42v-1.7z" fill="#2d3442" fill-rule="nonzero"/><path d="M117.47 49.28c0-.28-.15-.56-.15-.56l-.15.14s-.03.39-.3.85c-.28.46-1.82 1.84-1.82 1.84s2.42-1.15 2.42-2.27zm-13.35 2.27s-1.55-1.38-1.82-1.84c-.28-.46-.31-.85-.31-.85l-.15-.14s-.15.28-.15.56c0 1.12 2.43 2.27 2.43 2.27z" fill="#dfedf4" fill-rule="nonzero"/><path d="M116.11 15.02c.58.44.76.99.76.99l.45.28s-.15-.79-.91-1.41c-.76-.63-3.34-1.14-3.34-1.14l.46.29s2 .55 2.58.99zm-13.81.99s.17-.55.75-.99c.59-.44 2.58-.99 2.58-.99l.46-.29s-2.58.51-3.34 1.14c-.76.62-.91 1.41-.91 1.41l.46-.28z" fill="#c12828" fill-rule="nonzero"/><path class="fil6" d="M118.84 39.23s.45-.29.45-.57v-.42l-2.73.57.46 1.41 1.82-.99zm-18.52 0l1.82.99.46-1.41-2.73-.57v.42c0 .28.45.57.45.57z"/><path d="M117.93 21.67l-.3.15v1.84l.3.14v-2.13zm0 9.35l-.3.14V33l.3.14v-2.12zm-16.39-9.2l-.31-.15v2.13l.31-.14v-1.84zm0 11.18v-1.84l-.31-.14v2.12l.31-.14z" fill="#cf9728" fill-rule="nonzero"/></g></g></svg>